<?xml version="1.0" encoding="iso-8859-1"?>
<!-- Generator: Adobe Illustrator 18.0.0, SVG Export Plug-In . SVG Version: 6.00 Build 0)  -->
<!DOCTYPE svg PUBLIC "-//W3C//DTD SVG 1.1//EN" "http://www.w3.org/Graphics/SVG/1.1/DTD/svg11.dtd">
<svg version="1.1" xmlns="http://www.w3.org/2000/svg" xmlns:xlink="http://www.w3.org/1999/xlink" x="0px" y="0px"
	 viewBox="0 0 512 512.009" style="enable-background:new 0 0 512 512.009;" xml:space="preserve">
<g id="typewriter">
	<g>
		<defs>
			<circle id="SVGID_1_" cx="256" cy="256.005" r="256"/>
		</defs>
		<clipPath id="SVGID_2_">
			<use xlink:href="#SVGID_1_"  style="overflow:visible;"/>
		</clipPath>
		<circle style="clip-path:url(#SVGID_2_);fill:#78C1B0;" cx="256" cy="256.005" r="256"/>
		<g style="clip-path:url(#SVGID_2_);">
			<g>
				<g>
					<polygon style="fill:#FFFFFF;" points="144.715,99.352 107.535,136.884 107.535,337.425 430.716,337.425 430.716,99.352 					
						"/>
				</g>
				<polygon style="fill:#EAEBE1;" points="144.715,136.884 144.715,99.352 107.535,136.884 				"/>
			</g>
			<path style="fill:#26424B;" d="M474.517,424.179L445.06,312.294v-51.457H89.356v51.457L59.899,424.179
				c-0.713,2.709-0.74,5.403-0.21,7.925v36.116h415.038v-36.116C475.257,429.582,475.23,426.888,474.517,424.179z"/>
			<rect x="62.534" y="227.589" style="fill:#D1D1CF;" width="409.348" height="24.727"/>
			<rect x="71.689" y="218.388" style="fill:#EAEBE1;" width="391.038" height="43.598"/>
			<g>
				<g>
					<path style="fill:#D1D1CF;" d="M103.964,344.11c0,0,0.036,3.126,0.15,4.16c0.683,6.21,9.221,10.908,19.043,10.908
						s18.36-4.698,19.043-10.908c0.114-1.035,0.15-4.16,0.15-4.16H103.964z"/>
					<path style="fill:#EAEBE1;" d="M123.156,332.681c-10.6,0-19.192,5.117-19.192,11.429c0,0.588,0.098,1.161,0.242,1.725
						c1.4,5.491,9.338,9.704,18.951,9.704s17.551-4.213,18.951-9.704c0.144-0.564,0.242-1.137,0.242-1.725
						C142.349,337.798,133.756,332.681,123.156,332.681z"/>
				</g>
				<g>
					<path style="fill:#D1D1CF;" d="M161.585,344.11c0,0,0.036,3.126,0.15,4.16c0.683,6.21,9.221,10.908,19.043,10.908
						s18.36-4.698,19.043-10.908c0.114-1.035,0.15-4.16,0.15-4.16H161.585z"/>
					<path style="fill:#EAEBE1;" d="M180.777,332.681c-10.6,0-19.192,5.117-19.192,11.429c0,0.588,0.098,1.161,0.242,1.725
						c1.4,5.491,9.338,9.704,18.951,9.704s17.551-4.213,18.951-9.704c0.144-0.564,0.242-1.137,0.242-1.725
						C199.969,337.798,191.377,332.681,180.777,332.681z"/>
				</g>
				<g>
					<path style="fill:#D1D1CF;" d="M219.205,344.11c0,0,0.036,3.126,0.15,4.16c0.683,6.21,9.221,10.908,19.043,10.908
						s18.36-4.698,19.043-10.908c0.114-1.035,0.15-4.16,0.15-4.16H219.205z"/>
					<path style="fill:#EAEBE1;" d="M238.398,332.681c-10.6,0-19.192,5.117-19.192,11.429c0,0.588,0.098,1.161,0.242,1.725
						c1.4,5.491,9.338,9.704,18.951,9.704c9.612,0,17.551-4.213,18.951-9.704c0.144-0.564,0.242-1.137,0.242-1.725
						C257.59,337.798,248.997,332.681,238.398,332.681z"/>
				</g>
				<g>
					<path style="fill:#D1D1CF;" d="M276.826,344.11c0,0,0.036,3.126,0.15,4.16c0.683,6.21,9.221,10.908,19.043,10.908
						s18.36-4.698,19.043-10.908c0.114-1.035,0.15-4.16,0.15-4.16H276.826z"/>
					<path style="fill:#EAEBE1;" d="M296.018,332.681c-10.6,0-19.192,5.117-19.192,11.429c0,0.588,0.098,1.161,0.242,1.725
						c1.4,5.491,9.338,9.704,18.951,9.704s17.551-4.213,18.951-9.704c0.144-0.564,0.242-1.137,0.242-1.725
						C315.211,337.798,306.618,332.681,296.018,332.681z"/>
				</g>
				<g>
					<path style="fill:#D1D1CF;" d="M334.446,344.11c0,0,0.036,3.126,0.15,4.16c0.683,6.21,9.221,10.908,19.043,10.908
						c9.821,0,18.36-4.698,19.043-10.908c0.114-1.035,0.15-4.16,0.15-4.16H334.446z"/>
					<path style="fill:#EAEBE1;" d="M353.639,332.681c-10.6,0-19.192,5.117-19.192,11.429c0,0.588,0.098,1.161,0.242,1.725
						c1.4,5.491,9.338,9.704,18.951,9.704s17.551-4.213,18.951-9.704c0.144-0.564,0.242-1.137,0.242-1.725
						C372.831,337.798,364.238,332.681,353.639,332.681z"/>
				</g>
				<g>
					<path style="fill:#D1D1CF;" d="M392.067,344.11c0,0,0.036,3.126,0.15,4.16c0.683,6.21,9.221,10.908,19.043,10.908
						c9.821,0,18.36-4.698,19.043-10.908c0.114-1.035,0.15-4.16,0.15-4.16H392.067z"/>
					<path style="fill:#EAEBE1;" d="M411.259,332.681c-10.6,0-19.192,5.117-19.192,11.429c0,0.588,0.098,1.161,0.242,1.725
						c1.4,5.491,9.338,9.704,18.951,9.704c9.612,0,17.551-4.213,18.951-9.704c0.144-0.564,0.242-1.137,0.242-1.725
						C430.452,337.798,421.859,332.681,411.259,332.681z"/>
				</g>
			</g>
			<g>
				<g>
					<path style="fill:#D1D1CF;" d="M103.964,375.163c0,0,0.036,3.126,0.15,4.16c0.683,6.21,9.221,10.908,19.043,10.908
						s18.36-4.698,19.043-10.908c0.114-1.035,0.15-4.16,0.15-4.16H103.964z"/>
					<path style="fill:#EAEBE1;" d="M123.156,363.734c-10.6,0-19.192,5.117-19.192,11.429c0,0.588,0.098,1.161,0.242,1.725
						c1.4,5.491,9.338,9.704,18.951,9.704s17.551-4.213,18.951-9.704c0.144-0.564,0.242-1.137,0.242-1.725
						C142.349,368.851,133.756,363.734,123.156,363.734z"/>
				</g>
				<g>
					<path style="fill:#D1D1CF;" d="M161.585,375.163c0,0,0.036,3.126,0.15,4.16c0.683,6.21,9.221,10.908,19.043,10.908
						s18.36-4.698,19.043-10.908c0.114-1.035,0.15-4.16,0.15-4.16H161.585z"/>
					<path style="fill:#EAEBE1;" d="M180.777,363.734c-10.6,0-19.192,5.117-19.192,11.429c0,0.588,0.098,1.161,0.242,1.725
						c1.4,5.491,9.338,9.704,18.951,9.704s17.551-4.213,18.951-9.704c0.144-0.564,0.242-1.137,0.242-1.725
						C199.969,368.851,191.377,363.734,180.777,363.734z"/>
				</g>
				<g>
					<path style="fill:#D1D1CF;" d="M219.205,375.163c0,0,0.036,3.126,0.15,4.16c0.683,6.21,9.221,10.908,19.043,10.908
						s18.36-4.698,19.043-10.908c0.114-1.035,0.15-4.16,0.15-4.16H219.205z"/>
					<path style="fill:#EAEBE1;" d="M238.398,363.734c-10.6,0-19.192,5.117-19.192,11.429c0,0.588,0.098,1.161,0.242,1.725
						c1.4,5.491,9.338,9.704,18.951,9.704c9.612,0,17.551-4.213,18.951-9.704c0.144-0.564,0.242-1.137,0.242-1.725
						C257.59,368.851,248.997,363.734,238.398,363.734z"/>
				</g>
				<g>
					<path style="fill:#D1D1CF;" d="M276.826,375.163c0,0,0.036,3.126,0.15,4.16c0.683,6.21,9.221,10.908,19.043,10.908
						s18.36-4.698,19.043-10.908c0.114-1.035,0.15-4.16,0.15-4.16H276.826z"/>
					<path style="fill:#EAEBE1;" d="M296.018,363.734c-10.6,0-19.192,5.117-19.192,11.429c0,0.588,0.098,1.161,0.242,1.725
						c1.4,5.491,9.338,9.704,18.951,9.704s17.551-4.213,18.951-9.704c0.144-0.564,0.242-1.137,0.242-1.725
						C315.211,368.851,306.618,363.734,296.018,363.734z"/>
				</g>
				<g>
					<path style="fill:#D1D1CF;" d="M334.446,375.163c0,0,0.036,3.126,0.15,4.16c0.683,6.21,9.221,10.908,19.043,10.908
						c9.821,0,18.36-4.698,19.043-10.908c0.114-1.035,0.15-4.16,0.15-4.16H334.446z"/>
					<path style="fill:#EAEBE1;" d="M353.639,363.734c-10.6,0-19.192,5.117-19.192,11.429c0,0.588,0.098,1.161,0.242,1.725
						c1.4,5.491,9.338,9.704,18.951,9.704s17.551-4.213,18.951-9.704c0.144-0.564,0.242-1.137,0.242-1.725
						C372.831,368.851,364.238,363.734,353.639,363.734z"/>
				</g>
				<g>
					<path style="fill:#D1D1CF;" d="M392.067,375.163c0,0,0.036,3.126,0.15,4.16c0.683,6.21,9.221,10.908,19.043,10.908
						c9.821,0,18.36-4.698,19.043-10.908c0.114-1.035,0.15-4.16,0.15-4.16H392.067z"/>
					<path style="fill:#EAEBE1;" d="M411.259,363.734c-10.6,0-19.192,5.117-19.192,11.429c0,0.588,0.098,1.161,0.242,1.725
						c1.4,5.491,9.338,9.704,18.951,9.704c9.612,0,17.551-4.213,18.951-9.704c0.144-0.564,0.242-1.137,0.242-1.725
						C430.452,368.851,421.859,363.734,411.259,363.734z"/>
				</g>
			</g>
			<g>
				<g>
					<path style="fill:#D1D1CF;" d="M131.639,424.977c67.785,0,271.139,0,271.139,0c4.902,0,8.913-5.628,8.913-12.507H122.725
						C122.725,419.349,126.736,424.977,131.639,424.977z"/>
				</g>
				<path style="fill:#EAEBE1;" d="M406.524,421.383H127.892c-2.842,0-5.167-2.325-5.167-5.167v-7.493
					c0-2.842,2.325-5.167,5.167-5.167h278.632c2.842,0,5.167,2.325,5.167,5.167v7.493
					C411.691,419.058,409.366,421.383,406.524,421.383z"/>
			</g>
			<path style="fill:#EAEBE1;" d="M354.616,274.236c0,26.375-39.134,47.756-87.408,47.756s-87.408-21.381-87.408-47.756"/>
			<rect x="61.667" y="431.734" style="opacity:0.22;" width="411.082" height="34.216"/>
			<g>
				<path style="fill:#26424B;" d="M205.977,267.455c-1.171-0.826-2.783-0.546-3.607,0.622l-16.846,23.864
					c-0.824,1.168-0.546,2.783,0.622,3.607c0.454,0.32,0.975,0.473,1.49,0.473c0.813,0,1.612-0.381,2.117-1.095l16.846-23.864
					C207.423,269.894,207.145,268.279,205.977,267.455z"/>
				<path style="fill:#26424B;" d="M220.739,269.529c-1.281-0.622-2.834-0.093-3.46,1.193l-16.846,34.545
					c-0.627,1.284-0.093,2.834,1.192,3.46c0.365,0.177,0.751,0.261,1.132,0.261c0.958,0,1.879-0.534,2.327-1.454l16.846-34.545
					C222.558,271.705,222.024,270.155,220.739,269.529z"/>
				<path style="fill:#26424B;" d="M234.049,267.864c-1.377-0.379-2.801,0.441-3.175,1.82l-13.141,48.461
					c-0.374,1.38,0.441,2.8,1.82,3.174c0.227,0.062,0.455,0.091,0.679,0.091c1.14,0,2.183-0.758,2.496-1.91l13.141-48.461
					C236.244,269.658,235.428,268.238,234.049,267.864z"/>
				<path style="fill:#26424B;" d="M348.891,292.337l-16.846-23.864c-0.825-1.168-2.437-1.445-3.607-0.622
					c-1.168,0.824-1.445,2.44-0.622,3.607l16.846,23.864c0.505,0.714,1.304,1.095,2.117,1.095c0.516,0,1.036-0.153,1.49-0.473
					C349.437,295.12,349.715,293.504,348.891,292.337z"/>
				<path style="fill:#26424B;" d="M317.702,271.119c-0.626-1.285-2.176-1.814-3.46-1.193c-1.284,0.627-1.818,2.177-1.191,3.46
					l16.846,34.545c0.448,0.92,1.369,1.454,2.327,1.454c0.381,0,0.767-0.084,1.133-0.261c1.284-0.627,1.818-2.177,1.191-3.46
					L317.702,271.119z"/>
				<path style="fill:#26424B;" d="M304.107,270.081c-0.374-1.378-1.796-2.199-3.175-1.82c-1.38,0.374-2.194,1.794-1.82,3.174
					l13.142,48.46c0.313,1.152,1.356,1.91,2.496,1.91c0.224,0,0.452-0.029,0.679-0.091c1.38-0.374,2.194-1.794,1.82-3.174
					L304.107,270.081z"/>
				<path style="fill:#26424B;" d="M250.532,268.206c-1.402-0.236-2.743,0.719-2.976,2.128l-8.051,48.46
					c-0.235,1.41,0.719,2.743,2.129,2.977c0.143,0.024,0.286,0.035,0.427,0.035c1.242,0,2.339-0.898,2.549-2.163l8.05-48.46
					C252.896,269.773,251.942,268.44,250.532,268.206z"/>
				<path style="fill:#26424B;" d="M287.739,270.334c-0.233-1.408-1.568-2.364-2.976-2.128c-1.41,0.234-2.364,1.567-2.129,2.977
					l8.051,48.46c0.21,1.265,1.306,2.163,2.549,2.163c0.141,0,0.284-0.012,0.427-0.035c1.41-0.234,2.364-1.567,2.129-2.977
					L287.739,270.334z"/>
				<path style="fill:#26424B;" d="M266.743,266.981c-1.43,0-2.588,1.159-2.588,2.588v52.618c0,1.429,1.158,2.588,2.588,2.588
					c1.429,0,2.588-1.159,2.588-2.588v-52.618C269.331,268.14,268.173,266.981,266.743,266.981z"/>
			</g>
			<g>
				<path style="fill:#DB605A;" d="M209.331,151.836c0.213,0.489,0.343,1.123,0.389,1.903c0.046,0.779,0.069,1.62,0.069,2.522
					c0,0.903,0.015,1.804,0.046,2.705c0.03,0.901,0.167,1.704,0.412,2.407c0,0.245-0.008,0.535-0.023,0.871
					c-0.016,0.337-0.046,0.688-0.091,1.055c-0.046,0.366-0.138,0.719-0.275,1.055c-0.138,0.337-0.314,0.612-0.527,0.826
					c-0.245,0-0.481-0.046-0.711-0.138c-0.229-0.092-0.435-0.199-0.619-0.322c-0.214-0.121-0.413-0.275-0.596-0.458
					c0.244-0.947,0.336-1.895,0.275-2.842c-0.062-0.947-0.153-1.864-0.275-2.751c-0.123-0.886-0.214-1.743-0.275-2.568
					c-0.061-0.825,0.03-1.605,0.275-2.339c-0.458-0.213-0.986-0.336-1.582-0.366c-0.596-0.029-1.223-0.022-1.88,0.024
					c-0.658,0.045-1.337,0.114-2.04,0.206c-0.703,0.092-1.406,0.137-2.109,0.137c-0.245,0.46-0.382,0.925-0.412,1.399
					c-0.031,0.475-0.046,0.956-0.046,1.445s-0.023,0.971-0.069,1.445c-0.046,0.474-0.176,0.956-0.389,1.443
					c0.213,0.949,0.343,1.85,0.389,2.705c0.046,0.857,0.069,1.705,0.069,2.545c0,0.841,0.015,1.681,0.046,2.522
					c0.03,0.841,0.167,1.736,0.412,2.682c-0.245,0.703-0.382,1.415-0.412,2.133c-0.031,0.719-0.046,1.467-0.046,2.246
					c0,0.78-0.023,1.591-0.069,2.431c-0.046,0.841-0.176,1.734-0.389,2.682c0.458,0,0.97-0.046,1.536-0.138
					c0.565-0.091,1.146-0.198,1.742-0.32c0.596-0.121,1.184-0.23,1.765-0.32c0.58-0.092,1.116-0.138,1.605-0.138
					c0.214,0.245,0.436,0.428,0.665,0.55c0.229,0.123,0.435,0.245,0.619,0.366c0.184,0.123,0.328,0.26,0.436,0.412
					c0.107,0.153,0.16,0.351,0.16,0.596l-0.963,0.917h-16.185c-0.245-0.213-0.428-0.389-0.55-0.527
					c-0.123-0.138-0.206-0.267-0.252-0.39c-0.046-0.123-0.077-0.259-0.092-0.412c-0.015-0.153-0.023-0.351-0.023-0.596h7.611
					c0.244,0,0.382-0.099,0.413-0.298c0.03-0.198,0.045-0.45,0.045-0.756c0-0.305,0.023-0.61,0.069-0.917
					c0.046-0.305,0.191-0.581,0.435-0.825h-0.963v-22.88h-7.611c0,1.927-0.038,3.791-0.114,5.595
					c-0.077,1.804-0.36,3.438-0.848,4.905c0,0.429-0.153,0.703-0.458,0.826c-0.123,0.092-0.275,0.123-0.458,0.092
					c-0.49-0.214-0.765-0.489-0.825-0.826c-0.062-0.336-0.031-0.688,0.091-1.055c0.122-0.366,0.275-0.718,0.459-1.055
					c0.183-0.336,0.275-0.626,0.275-0.871c-0.245-0.703-0.383-1.46-0.413-2.269c-0.031-0.809-0.016-1.635,0.046-2.477
					c0.061-0.84,0.137-1.665,0.229-2.476c0.092-0.809,0.138-1.581,0.138-2.315c0.947-0.213,1.895-0.336,2.843-0.366
					c0.947-0.031,1.902-0.024,2.866,0.022c0.963,0.046,1.918,0.115,2.866,0.206c0.947,0.092,1.895,0.138,2.843,0.138H209.331z"/>
				<path style="fill:#DB605A;" d="M238.904,160.226c0.245,0.245,0.382,0.497,0.412,0.756c0.031,0.26,0.015,0.513-0.045,0.756
					c-0.062,0.245-0.138,0.489-0.229,0.734c-0.092,0.245-0.138,0.489-0.138,0.733c-0.489,0-0.925-0.053-1.307-0.16
					c-0.382-0.106-0.756-0.213-1.124-0.32c-0.366-0.107-0.749-0.213-1.146-0.322c-0.398-0.106-0.841-0.16-1.33-0.16
					c-0.245,0.489-0.444,1.078-0.596,1.765c-0.153,0.688-0.291,1.399-0.412,2.133c-0.123,0.733-0.252,1.452-0.39,2.155
					c-0.137,0.703-0.329,1.298-0.573,1.787c-0.489,1.498-1.024,2.942-1.604,4.333c-0.581,1.392-1.116,2.797-1.605,4.218
					c-0.49,1.421-0.902,2.889-1.238,4.402c-0.337,1.513-0.505,3.125-0.505,4.837c-0.244,0.52-0.543,0.924-0.894,1.215
					c-0.352,0.29-0.711,0.557-1.078,0.802c-0.367,0.244-0.726,0.504-1.078,0.78c-0.352,0.275-0.65,0.656-0.894,1.145
					c-0.52-0.245-1.07-0.343-1.651-0.298c-0.581,0.046-1.185,0.099-1.811,0.161c-0.627,0.06-1.238,0.06-1.834,0
					c-0.596-0.062-1.139-0.352-1.628-0.872c-0.52-0.458-0.971-0.978-1.353-1.559c-0.382-0.581-0.573-1.375-0.573-2.384
					c0-0.245-0.046-0.543-0.138-0.894c-0.092-0.351-0.137-0.741-0.137-1.169c0-0.429,0.076-0.887,0.229-1.376
					c0.153-0.489,0.474-0.978,0.963-1.467c0.244,0.245,0.497,0.39,0.756,0.436c0.259,0.046,0.511,0.068,0.756,0.068
					c0.244,0,0.497,0.024,0.756,0.07c0.26,0.046,0.512,0.19,0.756,0.435c0.184,0.184,0.336,0.382,0.459,0.596
					c0.121,0.184,0.236,0.39,0.343,0.62c0.107,0.229,0.161,0.465,0.161,0.711c-0.245,0-0.436,0.144-0.573,0.435
					c-0.138,0.291-0.268,0.589-0.39,0.894c-0.123,0.305-0.252,0.55-0.389,0.734c-0.138,0.183-0.329,0.167-0.573-0.046l0.963,0.963
					c0.978,0.52,1.91,0.734,2.797,0.642c0.886-0.092,1.589-0.642,2.109-1.651c0.488-1.467,0.977-2.774,1.467-3.92
					c0.488-1.146,0.978-2.453,1.467-3.92c0-0.489-0.107-0.932-0.32-1.33c-0.214-0.396-0.474-0.786-0.779-1.169
					c-0.306-0.382-0.627-0.764-0.963-1.146c-0.336-0.382-0.627-0.832-0.871-1.352c-0.52-1.468-1.025-2.736-1.514-3.806
					c-0.489-1.07-0.963-2.079-1.421-3.026c0-1.009-0.252-1.964-0.756-2.866c-0.504-0.901-1.246-1.598-2.224-2.087
					c-0.245,0-0.589,0.085-1.032,0.252c-0.443,0.169-0.879,0.283-1.307,0.344c-0.428,0.061-0.802-0.007-1.123-0.206
					c-0.321-0.199-0.482-0.665-0.482-1.399c-0.244-0.244-0.382-0.489-0.412-0.734c-0.031-0.244,0.023-0.458,0.16-0.641
					c0.138-0.184,0.321-0.336,0.55-0.458c0.229-0.123,0.466-0.184,0.711-0.184h9.812c1.009,1.009,1.009,2.017,0,3.026h-2.98v0.963
					c0.734,1.009,1.322,2.003,1.766,2.981c0.442,0.978,0.848,1.964,1.215,2.956c0.366,0.994,0.772,1.98,1.215,2.958
					c0.443,0.979,1.032,1.957,1.765,2.935c0.245,0,0.436-0.107,0.573-0.322c0.138-0.213,0.237-0.474,0.298-0.779
					c0.061-0.305,0.099-0.627,0.115-0.963c0.015-0.337,0.023-0.627,0.023-0.872c-0.245-0.244-0.291-0.496-0.138-0.756
					c0.153-0.259,0.359-0.511,0.619-0.756c0.259-0.244,0.465-0.496,0.619-0.756c0.153-0.259,0.107-0.511-0.137-0.756
					c0.519-0.947,0.986-1.918,1.399-2.912c0.412-0.993,0.619-1.978,0.619-2.958c-0.52-0.244-1.009-0.442-1.467-0.596
					c-0.458-0.152-0.841-0.358-1.146-0.619c-0.306-0.259-0.504-0.596-0.596-1.009c-0.091-0.412-0.015-1,0.23-1.765h7.932
					c0.947,0,1.666,0.039,2.155,0.114C238.659,159.409,238.904,159.707,238.904,160.226z"/>
				<path style="fill:#DB605A;" d="M250.733,158.071c0,0.489,0.038,0.971,0.114,1.445c0.076,0.474,0.359,0.956,0.848,1.445
					c1.925-2.873,4.829-3.837,8.711-2.889c0.489,0.245,1.009,0.497,1.559,0.756c0.55,0.26,1.07,0.574,1.559,0.94
					c0.489,0.366,0.894,0.802,1.215,1.307c0.321,0.504,0.481,1.123,0.481,1.857c0.488,0.978,0.848,2.102,1.078,3.37
					c0.229,1.269,0.313,2.568,0.252,3.897c-0.062,1.33-0.275,2.63-0.642,3.898c-0.366,1.269-0.917,2.377-1.65,3.324
					c-0.979,0.979-1.988,1.704-3.026,2.177c-1.039,0.474-2.292,0.711-3.759,0.711c-0.245,0.245-0.49,0.283-0.734,0.115
					c-0.244-0.169-0.52-0.368-0.825-0.596c-0.306-0.23-0.642-0.428-1.009-0.596c-0.367-0.167-0.795-0.13-1.284,0.114l-2.888-2.888
					c-0.245,0.733-0.383,1.467-0.413,2.201c-0.031,0.733-0.016,1.489,0.046,2.269c0.061,0.779,0.137,1.597,0.229,2.453
					c0.092,0.855,0.138,1.772,0.138,2.75c0.488,0.245,1.115,0.305,1.879,0.184c0.764-0.123,1.505-0.184,2.224-0.184
					c0.718,0,1.337,0.176,1.857,0.528c0.519,0.351,0.779,1.138,0.779,2.361c-0.734,0.488-1.46,0.718-2.178,0.687
					c-0.719-0.031-1.437-0.137-2.155-0.32c-0.718-0.184-1.437-0.351-2.155-0.504c-0.719-0.153-1.445-0.107-2.178,0.138
					c-0.49-0.245-0.917-0.337-1.284-0.276c-0.367,0.061-0.703,0.153-1.009,0.276c-0.306,0.121-0.589,0.213-0.848,0.275
					c-0.26,0.061-0.512-0.031-0.756-0.275c-0.245,0-0.535-0.008-0.871-0.024c-0.336-0.015-0.688-0.053-1.055-0.114
					c-0.366-0.061-0.718-0.153-1.055-0.275c-0.336-0.123-0.627-0.306-0.871-0.55c0.244-0.49,0.534-0.911,0.871-1.261
					c0.336-0.352,0.688-0.62,1.055-0.802c0.367-0.184,0.718-0.269,1.055-0.252c0.336,0.014,0.626,0.144,0.871,0.389h2.935v-24.208
					c-0.49-0.245-1.07-0.344-1.743-0.298c-0.673,0.046-1.307,0.068-1.902,0.068c-0.596,0-1.109-0.099-1.536-0.298
					c-0.428-0.198-0.642-0.665-0.642-1.399c0-0.244,0.007-0.534,0.023-0.871c0.015-0.336,0.053-0.649,0.114-0.94
					c0.061-0.29,0.153-0.542,0.275-0.756c0.122-0.213,0.305-0.32,0.55-0.32c0.733,0,1.413,0.054,2.04,0.16
					c0.626,0.107,1.238,0.214,1.834,0.322c0.596,0.107,1.207,0.213,1.834,0.32C249.319,158.018,249.999,158.071,250.733,158.071z
					 M258.482,160.96c-0.245,0.245-0.49,0.343-0.733,0.298c-0.245-0.046-0.49-0.099-0.734-0.161c-0.245-0.06-0.489-0.06-0.733,0
					c-0.245,0.062-0.489,0.337-0.733,0.826c-0.489,0-0.871,0.16-1.146,0.481c-0.275,0.322-0.535,0.696-0.779,1.124
					c-0.244,0.428-0.504,0.855-0.779,1.283c-0.275,0.429-0.657,0.765-1.146,1.009c-0.979,0.979-0.979,1.942,0,2.889
					c-0.49,0-0.772,0.199-0.848,0.596c-0.077,0.397-0.114,0.84-0.114,1.329c0.733,0.489,1.307,1.07,1.719,1.743
					c0.412,0.673,0.802,1.346,1.169,2.017c0.367,0.673,0.757,1.283,1.169,1.833s0.986,0.949,1.719,1.192
					c0.489-0.244,0.97-0.39,1.445-0.436c0.474-0.046,0.924-0.099,1.353-0.16c0.428-0.061,0.817-0.176,1.169-0.344
					c0.351-0.167,0.649-0.496,0.894-0.985c0.488-0.245,0.817-0.489,0.986-0.734c0.167-0.244,0.282-0.52,0.344-0.825
					c0.061-0.305,0.114-0.649,0.16-1.032c0.046-0.382,0.19-0.818,0.435-1.307c0-0.244,0.046-0.542,0.138-0.894
					c0.091-0.351,0.167-0.733,0.229-1.145c0.061-0.414,0.076-0.855,0.046-1.33c-0.031-0.474-0.168-0.954-0.413-1.445
					c0-0.488-0.153-0.871-0.458-1.145c-0.306-0.276-0.635-0.535-0.986-0.78c-0.352-0.244-0.68-0.504-0.986-0.779
					c-0.306-0.276-0.459-0.658-0.459-1.146L258.482,160.96z"/>
				<path style="fill:#DB605A;" d="M280.673,158.255c0.488,0.733,0.764,1.467,0.825,2.201c0.061,0.733,0.061,1.498,0,2.292
					c-0.062,0.795-0.123,1.628-0.184,2.499c-0.061,0.871,0.03,1.78,0.275,2.728c0,1.467-0.153,2.92-0.458,4.356
					c-0.306,1.436-0.458,2.888-0.458,4.355c0.488,0.245,1.023,0.383,1.605,0.414c0.58,0.031,1.169,0.015,1.765-0.046
					c0.596-0.061,1.184-0.138,1.765-0.23c0.58-0.092,1.131-0.138,1.651-0.138h1.925c0.947,1.009,0.947,2.003,0,2.981v0.917h-17.469
					c-0.52,0-1.016-0.153-1.49-0.458c-0.474-0.305-0.956-0.458-1.444-0.458c-0.245-0.245-0.329-0.489-0.252-0.734
					c0.075-0.244,0.206-0.496,0.389-0.756c0.183-0.259,0.367-0.511,0.55-0.756c0.183-0.244,0.275-0.489,0.275-0.734
					c0-0.244,0.053-0.382,0.16-0.412c0.107-0.029,0.252-0.015,0.436,0.046c0.183,0.061,0.396,0.138,0.642,0.23
					c0.245,0.092,0.488,0.137,0.733,0.137c0.489,0.245,1.016,0.383,1.582,0.414s1.124,0.015,1.674-0.046
					c0.55-0.061,1.046-0.138,1.49-0.23c0.443-0.092,0.787-0.138,1.032-0.138c-0.245-1.191-0.375-2.445-0.389-3.759
					c-0.016-1.314,0-2.644,0.045-3.99c0.046-1.344,0.115-2.674,0.207-3.989c0.091-1.314,0.137-2.583,0.137-3.806
					c-0.979-0.458-2.147-0.534-3.507-0.229c-1.361,0.305-2.774,0.719-4.241,1.237c-0.49-0.244-0.81-0.542-0.963-0.893
					c-0.154-0.351-0.199-0.712-0.138-1.078c0.061-0.366,0.199-0.718,0.413-1.055c0.213-0.336,0.442-0.626,0.688-0.871H280.673z
					 M282.598,150.507c0.244,0.245,0.374,0.489,0.39,0.733c0.015,0.245-0.039,0.482-0.161,0.711
					c-0.122,0.23-0.298,0.467-0.527,0.712c-0.229,0.244-0.466,0.489-0.711,0.733c-0.245,0.245-0.535,0.429-0.871,0.55
					c-0.337,0.123-0.688,0.184-1.055,0.184c-0.367,0-0.726-0.061-1.078-0.184c-0.352-0.121-0.65-0.305-0.894-0.55
					c-0.245-0.244-0.52-0.443-0.825-0.596c-0.306-0.152-0.581-0.32-0.825-0.504c-0.245-0.183-0.412-0.404-0.504-0.665
					c-0.091-0.259-0.015-0.634,0.23-1.123c0.244-0.734,0.695-1.33,1.352-1.789c0.657-0.458,1.345-0.718,2.063-0.779
					c0.718-0.061,1.406,0.107,2.064,0.504C281.903,148.84,282.353,149.529,282.598,150.507z"/>
				<path style="fill:#DB605A;" d="M300.938,159.264c0,0.245-0.046,0.497-0.138,0.756c-0.091,0.26-0.168,0.513-0.229,0.756
					c-0.061,0.245-0.077,0.497-0.046,0.756c0.03,0.26,0.168,0.527,0.413,0.802c0.275,0,0.542-0.107,0.802-0.32
					c0.259-0.214,0.519-0.451,0.779-0.712c0.259-0.259,0.519-0.496,0.779-0.711c0.259-0.213,0.511-0.32,0.756-0.32
					c0.244-0.764,0.611-1.307,1.101-1.627c0.488-0.322,1.023-0.55,1.604-0.688c0.58-0.138,1.169-0.237,1.766-0.298
					c0.596-0.061,1.153-0.213,1.673-0.458c0.489,0,0.986,0.114,1.491,0.344c0.504,0.229,0.986,0.504,1.444,0.825
					c0.458,0.321,0.871,0.658,1.238,1.009c0.367,0.352,0.688,0.65,0.963,0.894c0.244,1.528,0.382,3.011,0.412,4.447
					c0.03,1.438,0.015,2.859-0.046,4.264c-0.061,1.407-0.137,2.828-0.229,4.264c-0.092,1.438-0.137,2.92-0.137,4.447h2.017
					c0.275-0.275,0.488-0.427,0.642-0.458c0.153-0.029,0.29-0.007,0.413,0.07c0.121,0.077,0.252,0.16,0.389,0.252
					c0.138,0.092,0.328,0.137,0.573,0.137c0.52,0,0.825,0.207,0.917,0.62c0.091,0.412,0.137,0.879,0.137,1.399
					c-0.52,0.518-1.085,0.863-1.696,1.031c-0.612,0.167-1.238,0.252-1.88,0.252c-0.642,0-1.269-0.046-1.88-0.138
					c-0.612-0.091-1.177-0.137-1.697-0.137c-0.275-0.245-0.688-0.344-1.238-0.298c-0.55,0.046-1.116,0.106-1.696,0.183
					c-0.581,0.077-1.086,0.077-1.513,0c-0.429-0.077-0.642-0.375-0.642-0.893c0-0.52,0.038-0.986,0.115-1.399
					c0.075-0.412,0.359-0.62,0.848-0.62h4.126c-0.52-1.527-0.772-3.055-0.756-4.585c0.015-1.528,0.053-3.033,0.115-4.516
					c0.061-1.481,0.03-2.919-0.092-4.309c-0.123-1.39-0.566-2.729-1.33-4.012c-0.52-0.244-1.085-0.374-1.696-0.39
					c-0.612-0.015-1.238,0.077-1.88,0.276c-0.642,0.199-1.277,0.481-1.903,0.848c-0.627,0.366-1.185,0.809-1.673,1.329
					c-0.795,0.52-1.445,1.2-1.949,2.041c-0.504,0.84-0.887,1.772-1.146,2.796c-0.26,1.025-0.39,2.094-0.39,3.21
					s0.122,2.177,0.367,3.186c-0.245,0.276-0.39,0.536-0.436,0.78c-0.045,0.245-0.068,0.497-0.068,0.756
					c0,0.26-0.016,0.513-0.046,0.756c-0.031,0.245-0.168,0.504-0.412,0.78c0.336,0.336,0.741,0.581,1.215,0.733
					c0.474,0.153,0.955,0.267,1.444,0.344s0.955,0.145,1.399,0.206c0.442,0.061,0.802,0.191,1.078,0.39
					c0.275,0.199,0.419,0.481,0.435,0.848c0.015,0.366-0.146,0.886-0.481,1.559h-3.072c-0.765,0-1.582,0.046-2.453,0.137
					c-0.871,0.092-1.719,0.138-2.545,0.138c-0.825,0-1.605-0.085-2.338-0.252c-0.733-0.169-1.346-0.513-1.834-1.031
					c0.244-0.245,0.336-0.497,0.275-0.756c-0.062-0.26-0.123-0.513-0.183-0.756c-0.062-0.245-0.062-0.497,0-0.758
					c0.061-0.259,0.351-0.527,0.871-0.801c0.275,0,0.596,0.045,0.963,0.137c0.366,0.092,0.741,0.177,1.123,0.252
					c0.382,0.077,0.756,0.1,1.124,0.07s0.672-0.184,0.917-0.458v-16.369c-0.245-0.244-0.558-0.29-0.94-0.138
					c-0.382,0.153-0.795,0.329-1.238,0.528c-0.444,0.199-0.917,0.313-1.422,0.344c-0.504,0.031-1.002-0.214-1.49-0.734
					c0-0.244,0.053-0.542,0.16-0.894c0.107-0.351,0.252-0.688,0.436-1.009c0.183-0.32,0.396-0.596,0.642-0.825
					c0.244-0.23,0.504-0.344,0.779-0.344c0.336,0.337,0.703,0.527,1.101,0.573c0.397,0.046,0.795,0.031,1.192-0.046
					c0.397-0.075,0.787-0.167,1.169-0.275c0.382-0.107,0.741-0.138,1.078-0.092c0.336,0.046,0.642,0.206,0.917,0.482
					C300.571,158.117,300.785,158.592,300.938,159.264z"/>
				<path style="fill:#DB605A;" d="M347.384,162.932c0.244,0.245,0.382,0.474,0.412,0.688c0.03,0.213,0.015,0.412-0.046,0.595
					c-0.092,0.214-0.214,0.414-0.366,0.596c0,0.489-0.161,0.917-0.482,1.284c-0.32,0.366-0.695,0.642-1.123,0.825
					c-0.429,0.184-0.856,0.269-1.284,0.252c-0.429-0.015-0.765-0.145-1.009-0.39c-0.244-0.244-0.474-0.488-0.688-0.733
					c-0.214-0.244-0.375-0.489-0.481-0.734c-0.107-0.244-0.153-0.481-0.138-0.711c0.015-0.229,0.145-0.465,0.39-0.711v-0.963
					c-0.245,0-0.543,0.008-0.894,0.022c-0.352,0.016-0.711,0.054-1.077,0.115c-0.367,0.061-0.719,0.153-1.055,0.275
					c-0.337,0.123-0.627,0.306-0.871,0.55c0.978,1.467,1.628,2.92,1.948,4.356c0.321,1.436-0.008,2.873-0.986,4.309
					c-0.489,0.49-1.131,0.933-1.925,1.33c-0.795,0.397-1.438,0.596-1.926,0.596c-0.489,0.489-0.925,0.772-1.307,0.848
					c-0.382,0.077-0.787,0.084-1.215,0.022c-0.428-0.061-0.894-0.114-1.399-0.16c-0.504-0.046-1.124,0.053-1.857,0.298
					c-0.245,0-0.443-0.099-0.596-0.298c-0.153-0.199-0.29-0.39-0.412-0.574c-0.123-0.183-0.252-0.312-0.389-0.389
					c-0.138-0.077-0.329,0.007-0.573,0.252c-0.703,0.245-1.154,0.543-1.353,0.893c-0.199,0.352-0.268,0.712-0.206,1.078
					c0.061,0.366,0.176,0.719,0.343,1.055c0.168,0.337,0.252,0.627,0.252,0.871c0.489,0.245,0.978,0.337,1.468,0.276
					c0.488-0.061,0.97-0.153,1.444-0.276c0.474-0.121,0.955-0.213,1.445-0.275c0.488-0.061,0.978,0.031,1.467,0.275
					c1.192-0.244,2.43-0.358,3.714-0.344c1.284,0.016,2.499,0.169,3.645,0.458c1.146,0.291,2.17,0.749,3.072,1.376
					c0.901,0.626,1.597,1.413,2.086,2.361c0.245,0.733,0.367,1.505,0.367,2.315c0,0.809-0.123,1.605-0.367,2.384
					c-0.245,0.78-0.604,1.513-1.078,2.201c-0.474,0.688-1.062,1.276-1.765,1.765c-1.223,0.734-2.537,1.284-3.943,1.651
					c-1.406,0.366-2.836,0.55-4.287,0.55c-1.452,0-2.882-0.184-4.287-0.55c-1.406-0.366-2.721-0.917-3.943-1.651
					c-0.733-0.214-1.3-0.55-1.696-1.009c-0.398-0.458-0.719-0.993-0.963-1.605c-0.245-0.612-0.443-1.269-0.596-1.971
					c-0.154-0.703-0.352-1.421-0.596-2.155c0-0.489,0.244-1.139,0.733-1.949c0.488-0.809,1.222-1.46,2.201-1.948h0.917
					c0-0.46-0.191-0.925-0.573-1.399c-0.382-0.474-0.818-0.956-1.307-1.445c0-0.489,0.008-0.97,0.023-1.445
					c0.015-0.474,0.084-0.924,0.207-1.353c0.121-0.428,0.313-0.817,0.573-1.169c0.259-0.351,0.619-0.649,1.078-0.894
					c0.244-0.458,0.336-0.825,0.275-1.101c-0.061-0.275-0.183-0.496-0.366-0.665c-0.184-0.167-0.367-0.328-0.55-0.481
					c-0.184-0.153-0.275-0.351-0.275-0.596c-0.245-0.734-0.321-1.46-0.229-2.179c0.091-0.718,0.282-1.405,0.573-2.063
					c0.29-0.656,0.657-1.283,1.101-1.879c0.443-0.596,0.909-1.138,1.399-1.627c0.733-0.245,1.467-0.474,2.2-0.688
					c0.734-0.213,1.459-0.351,2.178-0.412c0.718-0.061,1.436-0.015,2.155,0.138c0.718,0.153,1.444,0.474,2.177,0.963
					c0.489-0.245,1.032-0.528,1.628-0.848c0.596-0.322,1.222-0.603,1.88-0.848c0.657-0.244,1.344-0.412,2.063-0.504
					c0.718-0.092,1.429-0.015,2.132,0.229c0.244,0.245,0.534,0.49,0.871,0.734c0.336,0.245,0.657,0.489,0.963,0.734
					c0.305,0.245,0.565,0.489,0.779,0.733C347.276,162.443,347.384,162.687,347.384,162.932z M342.569,183.197
					c-0.245-0.734-0.642-1.254-1.192-1.559c-0.55-0.306-1.162-0.52-1.834-0.642c-0.673-0.123-1.346-0.214-2.018-0.275
					c-0.672-0.062-1.254-0.214-1.742-0.458c-1.437,0-2.682,0.038-3.737,0.114c-1.055,0.075-2.071,0.358-3.049,0.848
					c-0.489,0-0.864,0.16-1.124,0.481c-0.26,0.322-0.481,0.695-0.665,1.124c-0.183,0.428-0.352,0.855-0.504,1.283
					c-0.153,0.428-0.352,0.764-0.596,1.009c0,0.489,0.107,0.963,0.321,1.422c0.213,0.458,0.504,0.871,0.871,1.237
					c0.366,0.366,0.787,0.657,1.261,0.871c0.474,0.214,0.955,0.322,1.444,0.322c0.947,0,1.91,0.046,2.889,0.138
					c0.978,0.091,1.949,0.137,2.912,0.137c0.963,0,1.926-0.084,2.889-0.252c0.963-0.168,1.933-0.497,2.912-0.985
					c0.947-0.458,1.459-1.131,1.536-2.017C343.219,185.107,343.028,184.175,342.569,183.197z M335.784,164.811
					c-0.52-0.458-1.009-0.726-1.467-0.802c-0.459-0.075-0.933-0.114-1.422-0.114c-0.979,0-1.911,0.237-2.797,0.711
					c-0.887,0.475-1.575,1.201-2.063,2.177c0,0.979,0.038,1.911,0.114,2.797c0.076,0.887,0.359,1.544,0.848,1.971
					c0.52,0.521,1.215,0.979,2.086,1.376c0.871,0.397,1.795,0.595,2.774,0.595c0.214-0.244,0.497-0.442,0.848-0.595
					c0.351-0.153,0.711-0.313,1.078-0.482c0.367-0.167,0.718-0.39,1.055-0.665c0.336-0.276,0.626-0.642,0.871-1.101
					c0.244-0.489,0.374-1.024,0.389-1.605c0.015-0.58-0.069-1.146-0.252-1.697s-0.451-1.055-0.802-1.513
					C336.693,165.407,336.272,165.056,335.784,164.811z"/>
			</g>
			<g style="opacity:0.4;">
				<path style="opacity:0.2;fill:#FFFFFF;" d="M89.356,260.837v51.457L59.899,424.179c-0.713,2.709-0.74,5.404-0.21,7.925v36.116
					h69.955l189.735-207.383H89.356z"/>
			</g>
		</g>
	</g>
</g>
<g id="Livello_1">
</g>
</svg>
